{
  "accessors": [
    {
      "bufferView": 2,
      "componentType": 5126,
      "count": 9915,
      "max": [
        31.343599319458008,
        31.32455062866211,
        4.664074897766113
      ],
      "min": [
        -31.343599319458008,
        -32.023048400878906,
        0.0
      ],
      "type": "VEC3"
    },
    {
      "bufferView": 2,
      "byteOffset": 118980,
      "componentType": 5126,
      "count": 9915,
      "max": [
        1.0,
        1.0,
        1.0
      ],
      "min": [
        -1.0,
        -1.0,
        -1.0
      ],
      "type": "VEC3"
    },
    {
      "bufferView": 1,
      "componentType": 5126,
      "count": 9915,
      "max": [
        0.9941250085830688,
        0.9956510066986084
      ],
      "min": [
        0.003370000049471855,
        0.0033569999504834414
      ],
      "type": "VEC2"
    },
    {
      "bufferView": 0,
      "componentType": 5125,
      "count": 24162,
      "type": "SCALAR"
    },
    {
      "bufferView": 2,
      "byteOffset": 237960,
      "componentType": 5126,
      "count": 7827,
      "max": [
        31.394399642944336,
        31.375349044799805,
        4.664074897766113
      ],
      "min": [
        -31.24199867248535,
        -32.023048400878906,
        0.0
      ],
      "type": "VEC3"
    },
    {
      "bufferView": 2,
      "byteOffset": 331884,
      "componentType": 5126,
      "count": 7827,
      "max": [
        1.0,
        1.0,
        1.0
      ],
      "min": [
        -1.0,
        -1.0,
        -1.0
      ],
      "type": "VEC3"
    },
    {
      "bufferView": 1,
      "byteOffset": 79320,
      "componentType": 5126,
      "count": 7827,
      "max": [
        0.9943959712982178,
        0.9958459734916687
      ],
      "min": [
        0.003370000049471855,
        0.0033569999504834414
      ],
      "type": "VEC2"
    },
    {
      "bufferView": 0,
      "byteOffset": 96648,
      "componentType": 5125,
      "count": 19146,
      "type": "SCALAR"
    },
    {
      "bufferView": 2,
      "byteOffset": 425808,
      "componentType": 5126,
      "count": 10874,
      "max": [
        32.003997802734375,
        31.680145263671875,
        4.306888103485107
      ],
      "min": [
        -32.003997802734375,
        -32.327850341796875,
        0.0
      ],
      "type": "VEC3"
    },
    {
      "bufferView": 2,
      "byteOffset": 556296,
      "componentType": 5126,
      "count": 10874,
      "max": [
        1.0,
        1.0,
        1.0
      ],
      "min": [
        -1.0,
        -1.0,
        -1.0
      ],
      "type": "VEC3"
    },
    {
      "bufferView": 1,
      "byteOffset": 141936,
      "componentType": 5126,
      "count": 10874,
      "max": [
        0.9959409832954407,
        0.9965819716453552
      ],
      "min": [
        0.0033569999504834414,
        0.0033569999504834414
      ],
      "type": "VEC2"
    },
    {
      "bufferView": 0,
      "byteOffset": 173232,
      "componentType": 5125,
      "count": 28608,
      "type": "SCALAR"
    },
    {
      "bufferView": 2,
      "byteOffset": 686784,
      "componentType": 5126,
      "count": 3536,
      "max": [
        23.291799545288086,
        31.375349044799805,
        3.6972880363464355
      ],
      "min": [
        -31.394399642944336,
        -30.194250106811523,
        0.0
      ],
      "type": "VEC3"
    },
    {
      "bufferView": 2,
      "byteOffset": 729216,
      "componentType": 5126,
      "count": 3536,
      "max": [
        1.0,
        1.0,
        1.0
      ],
      "min": [
        -1.0,
        -1.0,
        -1.0
      ],
      "type": "VEC3"
    },
    {
      "bufferView": 1,
      "byteOffset": 228928,
      "componentType": 5126,
      "count": 3536,
      "max": [
        0.9937859773635864,
        0.9956150054931641
      ],
      "min": [
        0.003372000064700842,
        0.003372000064700842
      ],
      "type": "VEC2"
    },
    {
      "bufferView": 0,
      "byteOffset": 287664,
      "componentType": 5125,
      "count": 9804,
      "type": "SCALAR"
    }
  ],
  "asset": {
    "extras": {
      "author": "jimbogies (https://sketchfab.com/jimbogies)",
      "license": "CC-BY-4.0 (http://creativecommons.org/licenses/by/4.0/)",
      "source": "https://sketchfab.com/3d-models/vr-gallery-test-d99b6663b89a432bb1202d76d8672051",
      "title": "VR Gallery TEST"
    },
    "generator": "Sketchfab-15.0.0",
    "version": "2.0"
  },
  "bufferViews": [
    {
      "buffer": 0,
      "byteLength": 326880,
      "name": "floatBufferViews",
      "target": 34963
    },
    {
      "buffer": 0,
      "byteLength": 257216,
      "byteOffset": 326880,
      "byteStride": 8,
      "name": "floatBufferViews",
      "target": 34962
    },
    {
      "buffer": 0,
      "byteLength": 771648,
      "byteOffset": 584096,
      "byteStride": 12,
      "name": "floatBufferViews",
      "target": 34962
    }
  ],
  "buffers": [
    {
      "byteLength": 1355744,
      "uri": "scene.bin"
    }
  ],
  "images": [
    {
      "uri": "textures/material_baseColor.jpeg"
    },
    {
      "uri": "textures/material_metallicRoughness.png"
    }
  ],
  "materials": [
    {
      "doubleSided": true,
      "name": "material",
      "pbrMetallicRoughness": {
        "baseColorTexture": {
          "index": 0
        },
        "metallicFactor": 0.0,
        "metallicRoughnessTexture": {
          "index": 1
        }
      }
    }
  ],
  "meshes": [
    {
      "name": "Object_0",
      "primitives": [
        {
          "attributes": {
            "NORMAL": 1,
            "POSITION": 0,
            "TEXCOORD_0": 2
          },
          "indices": 3,
          "material": 0,
          "mode": 4
        }
      ]
    },
    {
      "name": "Object_1",
      "primitives": [
        {
          "attributes": {
            "NORMAL": 5,
            "POSITION": 4,
            "TEXCOORD_0": 6
          },
          "indices": 7,
          "material": 0,
          "mode": 4
        }
      ]
    },
    {
      "name": "Object_2",
      "primitives": [
        {
          "attributes": {
            "NORMAL": 9,
            "POSITION": 8,
            "TEXCOORD_0": 10
          },
          "indices": 11,
          "material": 0,
          "mode": 4
        }
      ]
    },
    {
      "name": "Object_3",
      "primitives": [
        {
          "attributes": {
            "NORMAL": 13,
            "POSITION": 12,
            "TEXCOORD_0": 14
          },
          "indices": 15,
          "material": 0,
          "mode": 4
        }
      ]
    }
  ],
  "nodes": [
    {
      "children": [
        1
      ],
      "matrix": [
        1.0,
        0.0,
        0.0,
        0.0,
        0.0,
        2.220446049250313e-16,
        -1.0,
        0.0,
        0.0,
        1.0,
        2.220446049250313e-16,
        0.0,
        0.0,
        0.0,
        0.0,
        1.0
      ],
      "name": "Sketchfab_model"
    },
    {
      "children": [
        2,
        3,
        4,
        5
      ],
      "name": "Gallery03.obj.cleaner.materialmerger.gles"
    },
    {
      "mesh": 0,
      "name": "Object_2"
    },
    {
      "mesh": 1,
      "name": "Object_3"
    },
    {
      "mesh": 2,
      "name": "Object_4"
    },
    {
      "mesh": 3,
      "name": "Object_5"
    }
  ],
  "samplers": [
    {
      "magFilter": 9729,
      "minFilter": 9987,
      "wrapS": 10497,
      "wrapT": 10497
    }
  ],
  "scene": 0,
  "scenes": [
    {
      "name": "Sketchfab_Scene",
      "nodes": [
        0
      ]
    }
  ],
  "textures": [
    {
      "sampler": 0,
      "source": 0
    },
    {
      "sampler": 0,
      "source": 1
    }
  ]
}
